<?xml version="1.0" encoding="iso-8859-1"?>
<!-- Uploaded to: SVG Repo, www.svgrepo.com, Generator: SVG Repo Mixer Tools -->
<!DOCTYPE svg PUBLIC "-//W3C//DTD SVG 1.1//EN" "http://www.w3.org/Graphics/SVG/1.1/DTD/svg11.dtd">
<svg fill="#000000" version="1.1" id="Capa_1" xmlns="http://www.w3.org/2000/svg" xmlns:xlink="http://www.w3.org/1999/xlink" 
	 width="800px" height="800px" viewBox="0 0 368.72 368.72"
	 xml:space="preserve">
<g>
	<path d="M336.163,88.732c-33.892-39.539-91.613-8.697-99.793-4.02c-26.305-17.968-63.049-33.787-92.636-11.235
		c-21.262,16.196-33.491,37.087-36.396,62.108c-4.369,37.679,14.349,74.271,24.08,86.076c4.938,5.984,6.651,35.112,7.912,56.387
		c2.678,45.301,4.984,84.42,28.141,89.324c5.92,1.266,11.572,0.221,16.382-2.975c12.467-8.308,16.395-29.163,20.937-53.295
		c5.845-31.057,11.201-54.736,25.051-53.783c4.171,0.291,5.925,1.824,6.994,3.125c7.029,8.506,3.974,33.811,1.742,52.297
		c-3.229,26.826-6.018,49.994,11.643,55.142c1.592,0.465,3.544,0.837,5.786,0.837c3.556,0,7.819-0.906,12.501-3.73
		c27.119-16.312,48.45-86.721,56.688-124.761c21.576-16.801,35.67-41.339,38.842-67.882
		C366.464,151.886,363.618,120.759,336.163,88.732z M344.97,170.075c-2.684,22.471-15.093,43.164-34.02,56.838
		c-1.94,1.395-3.311,3.498-3.775,5.833c-11.235,54.491-33.021,106.427-48.566,115.792c-0.697,0.418-1.58,0.859-2.324,0.952
		c-2.184-5.065,0.023-23.33,1.371-34.461c3.079-25.526,6.251-51.958-6.018-66.808c-4.927-5.972-11.991-9.457-20.449-10.038
		c-0.86-0.069-1.708-0.093-2.545-0.093c-29.639,0-36.877,38.423-42.722,69.479c-2.939,15.615-6.96,37.017-12.717,40.862
		c-0.284,0.221-0.61,0.407-1.749,0.175c-8.841-1.858-11.734-50.785-12.972-71.664c-2.068-35.123-3.771-57.187-12.264-67.481
		c-6.582-7.971-23.51-39.805-19.821-71.652c2.271-19.629,12.014-36.134,28.959-49.054c37.453-28.576,100.438,37.122,101.077,37.784
		c3.66,3.834,9.714,4.002,13.56,0.372c3.857-3.654,4.02-9.708,0.395-13.565c-0.859-0.912-7.203-7.541-17.021-15.726
		c15.36-7.058,49.065-18.718,68.213,3.613C339.729,122.392,347.793,146.198,344.97,170.075z"/>
	<path d="M125.255,189.327l-3.625-16.336C121.642,178.986,123.053,184.331,125.255,189.327z"/>
	<path d="M121.235,171.231l0.395,1.76c0-0.535-0.075-1.022-0.052-1.569C121.473,171.335,121.339,171.289,121.235,171.231z"/>
	<path d="M152.942,0.384C92.81,5.392,47.968,58.396,52.993,118.523c1.58,19.049,8.017,36.529,17.927,51.413l-13.501,19.118
		l12.061,8.534L3.997,290.305l36.349,25.677l65.483-92.763l14.93,10.526l13.192-18.672c2.336,0.628,4.7,1.116,7.082,1.581
		c-5.043-9.702-11.683-18.021-15.778-27.327l2.19,9.853l-2.19-9.853c-2.213-4.996-3.625-10.341-3.625-16.336l-0.395-1.76
		c-18.311-12.113-31.138-32.114-33.102-55.636c-3.398-40.747,26.984-76.677,67.737-80.07c36.646-3.056,69.3,21.262,77.99,55.822
		c14.268,18.229,24.33,6.478,35.879-0.988C260.049,35.351,209.693-4.356,152.942,0.384z"/>
</g>
</svg>